<svg xmlns="http://www.w3.org/2000/svg" viewBox="0 0 977.09 154.29"><defs><style>.cls-1{fill:#006ee8;}.cls-2{fill:#45acff;}</style></defs><g id="Layer_2" data-name="Layer 2"><g id="Layer_1-2" data-name="Layer 1"><path class="cls-1" d="M208.21,105.92V42.59q0-7.89,7.89-7.88h79q23.91,0,23.78,23.78Q318.76,74,311.26,74q7.37.39,7.49,16.29.25,23.4-23.39,23.38l-79.21.13Q208.22,113.79,208.21,105.92Zm87.1-55.31H224V66.38h71.33q7.89,0,7.82-7.82t-7.82-8Zm7.8,39.31q-.06-7.8-8.08-7.68H224V97.92l71.2-.26Q303.2,97.77,303.11,89.92Z"/><path class="cls-1" d="M340.05,34.71q7.81,0,7.95,7.88V82q0,16,15.89,16h47.56q15.89,0,15.76-16V42.72q0-8,7.89-8T443,42.86v39q0,31.92-31.66,31.92H363.89q-31.65,0-31.66-31.79V42.59Q332.23,34.7,340.05,34.71Z"/><path class="cls-2" d="M496.94,34.92,568,34.79q7.62,0,7.62,7.82T568,50.42H496.94q-15.75.27-15.77,16V82.05q0,15.9,15.9,15.9h71q7.77,0,7.69,7.88T568,113.72h-71q-31.53,0-31.53-31.67V66.4Q465.41,34.93,496.94,34.92Z"/><path class="cls-2" d="M588.9,105.81V42.62q0-7.86,7.82-7.88t7.94,7.49V66.4h79.22l-.13-24q.15-7.62,8-7.62t7.75,7.75v63.19c0,5.26-2.61,7.9-7.82,8s-7.82-2.61-7.82-8V82.17h-79.2v23.75q-.12,7.77-7.94,7.76T588.9,105.81Z"/><path class="cls-2" d="M712.92,105.81l13.66-63.32q2.1-7.86,10-7.88h63.33q7.89,0,9.32,8l14.58,63.06q0,7.89-6.89,7.88t-9-8l-6.18-23.38h-68l-5,23.77q-1.85,7.77-8.8,7.76T712.92,105.81Zm86.83-39.54L795.68,50.5H740.11l-3.68,15.77Z"/><path class="cls-2" d="M845,34.61q7.89,0,8,7.88l-.13,63.19q0,8-7.88,8t-7.89-7.89V42.49Q837.11,34.63,845,34.61Z"/><path class="cls-2" d="M866.49,105.81V42.62q0-7.86,5.78-7.88a14.13,14.13,0,0,1,10,3.94l78.94,51.24.13-47.56q.13-7.62,8-7.62t7.75,7.75v63.19c0,5.26-2.06,7.9-6.18,8a13.15,13.15,0,0,1-9.85-3.48l-78.82-52v47.72q-.13,7.77-8,7.76T866.49,105.81Z"/><path class="cls-1" d="M45,31.5a4,4,0,0,1-2.82-6.82L65.65,1.17a4,4,0,1,1,5.66,5.66L47.8,30.33A4,4,0,0,1,45,31.5Z"/><path class="cls-1" d="M109.18,31.5a4,4,0,0,1-2.83-1.17L82.84,6.83A4,4,0,0,1,88.5,1.17L112,24.68a4,4,0,0,1-2.83,6.82Z"/><path class="cls-1" d="M4,72.48a4,4,0,0,1-2.83-6.83l23.51-23.5a4,4,0,0,1,5.66,5.65L6.83,71.31A4,4,0,0,1,4,72.48Z"/><path class="cls-1" d="M68.2,72.48a4,4,0,0,1-2.82-1.17L41.87,47.8a4,4,0,0,1,5.66-5.65L71,65.65a4,4,0,0,1-2.83,6.83Z"/><path class="cls-1" d="M86,72.48a4,4,0,0,1-2.83-6.83l23.51-23.5a4,4,0,0,1,5.65,5.65L88.78,71.31A4,4,0,0,1,86,72.48Z"/><path class="cls-1" d="M150.11,72.48a4,4,0,0,1-2.83-1.17L123.78,47.8a4,4,0,0,1,5.65-5.65l23.51,23.5a4,4,0,0,1-2.83,6.83Z"/><path class="cls-2" d="M85.67,154.29a4,4,0,0,1-2.83-6.83l23.51-23.54a4,4,0,0,1,5.66,5.65L88.5,153.12A4,4,0,0,1,85.67,154.29Z"/><path class="cls-2" d="M68.48,154.29a4,4,0,0,1-2.83-1.17L42.11,129.61A4,4,0,0,1,47.76,124l23.51,23.5a4,4,0,0,1-2.83,6.83Z"/><path class="cls-2" d="M126.65,113.32a4,4,0,0,1-2.83-6.83L147.32,83A4,4,0,0,1,153,88.64l-23.51,23.5A4,4,0,0,1,126.65,113.32Z"/><path class="cls-2" d="M109.46,113.32a4,4,0,0,1-2.83-1.18L83.11,88.64A4,4,0,0,1,88.77,83l23.5,23.51a4,4,0,0,1-2.82,6.83Z"/><path class="cls-2" d="M44.7,113.32a4,4,0,0,1-2.83-6.83L65.38,83a4,4,0,0,1,5.8,5.52l-.15.14-23.5,23.5A4,4,0,0,1,44.7,113.32Z"/><path class="cls-2" d="M27.51,113.32a4,4,0,0,1-2.83-1.18L1.17,88.64A4,4,0,0,1,6.83,83h0l23.51,23.51a4,4,0,0,1-2.83,6.83Z"/></g></g></svg>